<?xml version="1.0" encoding="utf-8"?>
<!-- Generator: Adobe Illustrator 25.2.0, SVG Export Plug-In . SVG Version: 6.00 Build 0)  -->
<svg version="1.1" id="Layer_1" xmlns="http://www.w3.org/2000/svg" xmlns:xlink="http://www.w3.org/1999/xlink" x="0px" y="0px"
	 viewBox="0 0 24 24" style="enable-background:new 0 0 24 24;" xml:space="preserve">
<path class="st0" d="M20.4,12.7c-0.4,0-0.7-0.3-0.7-0.6c-0.2-2.2-1.4-4.2-3.2-5.4c-0.3-0.2-0.4-0.7-0.2-1c0.2-0.3,0.7-0.4,1-0.2
	c2.2,1.5,3.6,3.9,3.9,6.5C21.1,12.3,20.8,12.7,20.4,12.7C20.4,12.7,20.4,12.7,20.4,12.7z"/>
<path class="st0" d="M3.7,12.8C3.7,12.8,3.7,12.8,3.7,12.8C3.3,12.7,3,12.4,3,12c0.3-2.6,1.7-5,3.8-6.5c0.3-0.2,0.8-0.2,1,0.2
	C8.1,6,8,6.4,7.7,6.7c-1.8,1.3-3,3.3-3.2,5.5C4.4,12.5,4.1,12.8,3.7,12.8z"/>
<path class="st0" d="M16,21.1c-1.2,0.6-2.5,0.9-3.9,0.9c-1.4,0-2.8-0.3-4.1-1c-0.4-0.2-0.5-0.6-0.3-1c0.2-0.4,0.6-0.5,1-0.3
	c0.6,0.3,1.3,0.5,2,0.7c0.9,0.2,1.9,0.2,2.8,0c0.7-0.1,1.4-0.3,2-0.6c0.4-0.2,0.8,0,1,0.3C16.5,20.5,16.4,20.9,16,21.1z"/>
<path class="st0" d="M12.1,2c-1.6,0-2.8,1.3-2.8,2.8s1.3,2.8,2.8,2.8s2.8-1.3,2.8-2.8S13.6,2,12.1,2z"/>
<path class="st0" d="M5.1,13.9c-1.5,0-2.8,1.3-2.8,2.8c0,1.6,1.3,2.8,2.8,2.8s2.8-1.3,2.8-2.8C7.9,15.1,6.6,13.9,5.1,13.9z"/>
<path class="st0" d="M19,13.9c-1.5,0-2.8,1.3-2.8,2.8c0,1.6,1.3,2.8,2.8,2.8c1.6,0,2.8-1.3,2.8-2.8C21.8,15.1,20.5,13.9,19,13.9z"/>
</svg>
