<?xml version="1.0" encoding="utf-8"?>
<!-- Generator: Adobe Illustrator 25.2.0, SVG Export Plug-In . SVG Version: 6.00 Build 0)  -->
<svg version="1.1" id="Layer_1" xmlns="http://www.w3.org/2000/svg" xmlns:xlink="http://www.w3.org/1999/xlink" x="0px" y="0px"
	 viewBox="0 0 24 24" style="enable-background:new 0 0 24 24;" xml:space="preserve">
<g>
	<path class="st0" d="M20.6,13.1c-0.4,0-0.7-0.3-0.7-0.7c-0.2-2.3-1.5-4.3-3.3-5.6c-0.3-0.2-0.4-0.7-0.2-1c0.2-0.3,0.7-0.4,1-0.2
		c2.2,1.6,3.7,4,4,6.7C21.4,12.6,21.1,13,20.6,13.1C20.7,13.1,20.6,13.1,20.6,13.1z"/>
</g>
<g>
	<path class="st0" d="M3.5,13.1C3.5,13.1,3.4,13.1,3.5,13.1c-0.5,0-0.8-0.4-0.7-0.8C3,9.6,4.4,7.2,6.7,5.6c0.3-0.2,0.8-0.2,1,0.2
		c0.2,0.3,0.2,0.8-0.2,1c-1.9,1.3-3.1,3.4-3.3,5.6C4.2,12.8,3.9,13.1,3.5,13.1z"/>
</g>
<g>
	<path class="st0" d="M12.1,22.6c-1.5,0-2.9-0.3-4.2-1c-0.4-0.2-0.5-0.6-0.3-1c0.2-0.4,0.6-0.5,1-0.3c2.1,1.1,4.8,1.1,6.9,0.1
		c0.4-0.2,0.8,0,1,0.3c0.2,0.4,0,0.8-0.3,1C14.9,22.3,13.5,22.6,12.1,22.6z"/>
</g>
<g>
	<path class="st0" d="M12.1,8.4c-1.9,0-3.5-1.6-3.5-3.5c0-0.4,0.3-0.8,0.8-0.8S10,4.5,10,4.9c0,1.1,0.9,2,2,2c1.1,0,2-0.9,2-2
		c0-1.1-0.9-2-2-2c-0.4,0-0.8-0.3-0.8-0.8s0.3-0.8,0.8-0.8c1.9,0,3.5,1.6,3.5,3.5C15.6,6.9,14,8.4,12.1,8.4z"/>
</g>
<g>
	<path class="st0" d="M4.8,20.7c-1.9,0-3.5-1.6-3.5-3.5s1.6-3.5,3.5-3.5c1.9,0,3.5,1.6,3.5,3.5S6.8,20.7,4.8,20.7z M4.8,15.1
		c-1.1,0-2,0.9-2,2s0.9,2,2,2c1.1,0,2-0.9,2-2S6,15.1,4.8,15.1z"/>
</g>
<g>
	<path class="st0" d="M19.2,20.7c-1.9,0-3.5-1.6-3.5-3.5s1.6-3.5,3.5-3.5s3.5,1.6,3.5,3.5c0,0.4-0.3,0.8-0.8,0.8s-0.8-0.3-0.8-0.8
		c0-1.1-0.9-2-2-2s-2,0.9-2,2s0.9,2,2,2c0.4,0,0.8,0.3,0.8,0.8S19.6,20.7,19.2,20.7z"/>
</g>
</svg>
