<?xml version="1.0" encoding="utf-8"?>
<!-- Generator: Adobe Illustrator 25.2.0, SVG Export Plug-In . SVG Version: 6.00 Build 0)  -->
<svg version="1.1" id="Layer_1" xmlns="http://www.w3.org/2000/svg" xmlns:xlink="http://www.w3.org/1999/xlink" x="0px" y="0px"
	 viewBox="0 0 24 24" style="enable-background:new 0 0 24 24;" xml:space="preserve">
<path class="st0" d="M21,13.3l-0.9-0.9l-7.8,7.7l0.9,0.9c0.8,0.8,1.6,1.2,2.4,1.2c0.8,0,1.6-0.4,2.4-1.2l3-3
	C22.6,16.5,22.6,14.9,21,13.3z"/>
<path class="st0" d="M10.7,2.9c-1.6-1.6-3.2-1.6-4.8,0l-3,3c-1.6,1.6-1.6,3.2,0,4.8l0.9,0.9l7.8-7.7L10.7,2.9z"/>
<path class="st0" d="M21.8,3.9c-1.3,3.3-4.3,7.5-7.1,10.3c-0.4-2.6-2.5-4.6-5.1-5c2.8-2.9,7.1-5.9,10.4-7.2c0.6-0.2,1.2,0,1.5,0.3
	C21.9,2.8,22,3.4,21.8,3.9z"/>
<path class="st0" d="M13.8,15.1c-0.2,0.2-0.4,0.3-0.6,0.5L11.4,17c0,0,0-0.1,0-0.1c-0.1-1.1-0.6-2.1-1.4-2.9c-0.8-0.8-1.8-1.3-3-1.5
	c0,0-0.1,0-0.1,0l1.5-1.8c0.1-0.2,0.3-0.4,0.4-0.5l0.7,0.1c2.1,0.3,3.9,2,4.2,4.1L13.8,15.1z"/>
<path class="st0" d="M10.4,17.6c0,1.1-0.4,2.1-1.2,2.9c-0.6,0.6-1.4,1-2.4,1.2L4.3,22C3,22.1,1.8,21,2,19.6l0.3-2.5
	c0.2-2.2,2.1-3.6,4-3.6c0.2,0,0.4,0,0.6,0c0.8,0.1,1.7,0.5,2.4,1.2c0.7,0.7,1.1,1.5,1.2,2.3C10.4,17.2,10.4,17.4,10.4,17.6z"/>
</svg>
