<?xml version="1.0" encoding="utf-8"?>
<!-- Generator: Adobe Illustrator 25.2.0, SVG Export Plug-In . SVG Version: 6.00 Build 0)  -->
<svg version="1.1" id="Layer_1" xmlns="http://www.w3.org/2000/svg" xmlns:xlink="http://www.w3.org/1999/xlink" x="0px" y="0px"
	 viewBox="0 0 24 24" style="enable-background:new 0 0 24 24;" xml:space="preserve">
<g>
	<path class="st0" d="M10.4,18.4c-0.1,0-0.3,0-0.4-0.1c-0.2-0.1-0.3-0.4-0.3-0.6c0-0.1,0-0.3,0-0.5c-0.1-0.7-0.4-1.3-0.9-1.9
		c-0.5-0.5-1.2-0.9-1.9-1l-0.1,0c-0.1,0-0.2,0-0.4,0c-0.3,0-0.5-0.1-0.7-0.3s-0.2-0.5-0.1-0.7c0.1-0.4,0.4-0.8,0.6-1.1l1.5-1.9
		c2.6-3.3,8-7.3,12-8.9c0.9-0.3,1.7-0.1,2.3,0.5c0.6,0.6,0.8,1.5,0.5,2.3c-1.6,3.9-5.6,9.3-8.9,12l-2,1.6c-0.3,0.2-0.6,0.4-1,0.6
		C10.6,18.4,10.5,18.4,10.4,18.4z M11.2,17.6L11.2,17.6L11.2,17.6z M7.5,12.9c0.8,0.2,1.6,0.7,2.2,1.3c0.6,0.6,1,1.3,1.3,2.1
		l1.7-1.4c3.1-2.5,6.9-7.6,8.4-11.3c0,0,0,0,0,0C21.3,3.3,21.1,3,21,3c-0.2-0.2-0.5-0.2-0.7-0.1c-3.7,1.5-8.8,5.3-11.3,8.4L7.5,12.9
		z"/>
</g>
<g>
	<path class="st0" d="M4.1,22.8c-0.8,0-1.5-0.3-2-0.8c-0.6-0.6-0.9-1.5-0.8-2.4l0.3-2.5c0.3-2.4,2.3-4.2,4.7-4.3c0.2,0,0.4,0,0.7,0
		C8,13,9,13.4,9.8,14.2c0.8,0.8,1.2,1.7,1.4,2.7l0,0.2c0,0.1,0,0.3,0,0.4c0,1.3-0.5,2.5-1.4,3.5C9,21.9,8,22.3,6.9,22.5l-2.5,0.3
		C4.3,22.8,4.2,22.8,4.1,22.8z M6.5,14.3c-0.1,0-0.1,0-0.2,0c-1.5,0-3.1,1.1-3.3,3l-0.3,2.5c0,0.4,0.1,0.8,0.4,1.1
		c0.3,0.3,0.7,0.4,1.1,0.4L6.7,21c0.8-0.1,1.5-0.4,2-0.9c0.6-0.6,1-1.5,1-2.4c0-0.1,0-0.2,0-0.3l0-0.2c-0.1-0.6-0.4-1.3-0.9-1.8
		c-0.5-0.5-1.2-0.9-1.9-1C6.7,14.3,6.6,14.3,6.5,14.3z"/>
</g>
<g>
	<path class="st0" d="M14.2,15.2c-0.4,0-0.8-0.3-0.8-0.8c0-2.2-1.8-4-4-4c-0.4,0-0.8-0.3-0.8-0.8S9.1,9,9.5,9c3,0,5.5,2.5,5.5,5.5
		C15,14.9,14.7,15.2,14.2,15.2z"/>
</g>
<g>
	<path class="st0" d="M15.7,22.7c-0.9,0-1.9-0.4-2.7-1.3c-0.3-0.3-0.3-0.8,0-1.1c0.3-0.3,0.8-0.3,1.1,0c1.2,1.2,2.2,1.2,3.4,0l3-3
		c1.2-1.2,1.2-2.2,0-3.4l-0.7-0.7c-0.3-0.3-0.3-0.8,0-1.1c0.3-0.3,0.8-0.3,1.1,0l0.7,0.7c1.8,1.8,1.8,3.7,0,5.5l-3,3
		C17.5,22.3,16.6,22.7,15.7,22.7z"/>
</g>
<g>
	<path class="st0" d="M3.1,11.3c-0.2,0-0.4-0.1-0.5-0.2c-1.8-1.8-1.8-3.7,0-5.5l3-3c1.8-1.8,3.7-1.8,5.5,0l0.7,0.7
		c0.3,0.3,0.3,0.8,0,1.1c-0.3,0.3-0.8,0.3-1.1,0L10,3.6c-1.2-1.2-2.2-1.2-3.4,0l-3,3c-1.2,1.2-1.2,2.2,0,3.4c0.3,0.3,0.3,0.8,0,1.1
		C3.5,11.2,3.3,11.3,3.1,11.3z"/>
</g>
<g>
	<path class="st0" d="M7.5,8.3C7.4,8.3,7.2,8.2,7,8.1C6.7,7.8,6.7,7.3,7,7l3.7-3.7C11,3,11.5,3,11.8,3.3s0.3,0.8,0,1.1L8.1,8.1
		C7.9,8.2,7.7,8.3,7.5,8.3z"/>
</g>
<g>
	<path class="st0" d="M17.2,16.4c-0.2,0-0.4-0.1-0.5-0.2c-0.3-0.3-0.3-0.8,0-1.1l3-2.9c0.3-0.3,0.8-0.3,1.1,0c0.3,0.3,0.3,0.8,0,1.1
		l-3,3C17.5,16.4,17.4,16.4,17.2,16.4z"/>
</g>
</svg>
