<?xml version="1.0" encoding="utf-8"?>
<!-- Generator: Adobe Illustrator 25.2.0, SVG Export Plug-In . SVG Version: 6.00 Build 0)  -->
<svg version="1.1" id="Layer_1" xmlns="http://www.w3.org/2000/svg" xmlns:xlink="http://www.w3.org/1999/xlink" x="0px" y="0px"
	 viewBox="0 0 24 24" style="enable-background:new 0 0 24 24;" xml:space="preserve">
<g>
	<path class="st0" d="M12,10.3c-1,0-2-0.2-3-0.5c-0.4-0.1-0.6-0.6-0.4-1c0.1-0.4,0.6-0.6,1-0.4c1.6,0.6,3.4,0.6,5,0
		c0.4-0.1,0.8,0.1,1,0.4c0.1,0.4-0.1,0.8-0.4,1C14,10.1,13,10.3,12,10.3z"/>
</g>
<g>
	<path class="st0" d="M19.1,22.8c-0.5,0-1.1-0.2-1.6-0.5l-4.9-2.7c-0.3-0.2-0.9-0.2-1.1,0l-4.9,2.7c-1,0.5-2,0.6-2.8,0.1
		C3,22,2.6,21.1,2.6,20V10c0-0.4,0.3-0.8,0.8-0.8S4.1,9.6,4.1,10v10c0,0.6,0.2,1,0.5,1.2c0.3,0.2,0.8,0.1,1.3-0.2l4.9-2.7
		c0.7-0.4,1.9-0.4,2.6,0l4.9,2.7c0.5,0.3,1,0.4,1.3,0.2c0.3-0.2,0.5-0.6,0.5-1.2V5.9c0-1.7-1.4-3.1-3.1-3.1H7.2
		c-1.7,0-3.1,1.4-3.1,3.1c0,0.4-0.3,0.8-0.8,0.8S2.6,6.3,2.6,5.9c0-2.5,2.1-4.6,4.6-4.6h9.6c2.5,0,4.6,2.1,4.6,4.6V20
		c0,1.1-0.4,2-1.2,2.5C19.9,22.7,19.5,22.8,19.1,22.8z"/>
</g>
</svg>
