<?xml version="1.0" encoding="utf-8"?>
<!-- Generator: Adobe Illustrator 25.2.0, SVG Export Plug-In . SVG Version: 6.00 Build 0)  -->
<svg version="1.1" id="Layer_1" xmlns="http://www.w3.org/2000/svg" xmlns:xlink="http://www.w3.org/1999/xlink" x="0px" y="0px"
	 viewBox="0 0 24 24" style="enable-background:new 0 0 24 24;" xml:space="preserve">
<path class="st0" d="M16.8,2H7.2C5.1,2,3.3,3.7,3.3,5.9V20c0,1.8,1.3,2.6,2.9,1.7l4.9-2.7c0.5-0.3,1.4-0.3,1.9,0l4.9,2.7
	c1.6,0.9,2.9,0.1,2.9-1.7V5.9C20.7,3.7,19,2,16.8,2z M15,9.8c-1,0.4-2,0.5-3,0.5s-2-0.2-3-0.5c-0.4-0.1-0.6-0.6-0.4-1
	c0.1-0.4,0.6-0.6,1-0.4c1.6,0.6,3.4,0.6,5,0c0.4-0.1,0.8,0.1,1,0.4C15.6,9.2,15.4,9.6,15,9.8z"/>
</svg>
