<?xml version="1.0" encoding="utf-8"?>
<!-- Generator: Adobe Illustrator 25.2.0, SVG Export Plug-In . SVG Version: 6.00 Build 0)  -->
<svg version="1.1" id="wave" xmlns="http://www.w3.org/2000/svg" xmlns:xlink="http://www.w3.org/1999/xlink" x="0px" y="0px"
	 viewBox="0 0 1440 100" style="enable-background:new 0 0 1440 100;" xml:space="preserve">
<path class="st0" d="M2424.7,100H1440H0V29.6l21.4,1.2c21.4,0.9,64.1,3.7,107.3,5.8c42.8,2.1,85.5,4.9,128.8,9.4
	c42.8,4.7,85.5,11.8,128.8,16.5c42.7,4.4,85.5,7.2,128.8,1.1c42.6-5.8,85.5-19.9,128.8-18.7c42.5,0.9,85.5,17.8,127.8,25.8
	c42.5,8,86.1,8.4,128.8,1.2c43.3-7,86.5-21.1,128.8-27c43.2-6.1,86.5-3.3,128.8,3.5c43.1,7.2,85.5,18.5,128.8,19.9
	c43,1.4,85.5-8.5,128.8-7c42.9,1.4,85.5,12.7,128.8,17.6c42.8,4.9,85.5,2.1,128.8-2.3c42.8-4.7,85.5-11.8,128.8-20
	c42.7-8,85.5-17.8,128.8-12.9c42.6,4.9,85.5,23.2,128.8,27c42.5,3.3,85.5-8,127.8-10.6c43.4-2.3,86.5,4.7,128.8,7
	c36.4,2.2,72.8,0.6,108.6-2.7L2424.7,100z"/>
</svg>
